<svg width="184" height="48" viewBox="0 0 184 48" fill="none" xmlns="http://www.w3.org/2000/svg">
<path d="M30.9688 30.1562L39.9375 33C38.5625 38 36.2708 41.7188 33.0625 44.1562C29.875 46.5729 25.8229 47.7812 20.9062 47.7812C14.8229 47.7812 9.82292 45.7083 5.90625 41.5625C1.98958 37.3958 0.03125 31.7083 0.03125 24.5C0.03125 16.875 2 10.9583 5.9375 6.75C9.875 2.52083 15.0521 0.40625 21.4688 0.40625C27.0729 0.40625 31.625 2.0625 35.125 5.375C37.2083 7.33333 38.7708 10.1458 39.8125 13.8125L30.6562 16C30.1146 13.625 28.9792 11.75 27.25 10.375C25.5417 9 23.4583 8.3125 21 8.3125C17.6042 8.3125 14.8438 9.53125 12.7188 11.9688C10.6146 14.4062 9.5625 18.3542 9.5625 23.8125C9.5625 29.6042 10.6042 33.7292 12.6875 36.1875C14.7708 38.6458 17.4792 39.875 20.8125 39.875C23.2708 39.875 25.3854 39.0938 27.1562 37.5312C28.9271 35.9688 30.1979 33.5104 30.9688 30.1562ZM47.3112 24.375C47.3112 19.7083 48.0092 15.7917 49.405 12.625C50.4467 10.2917 51.8633 8.19792 53.655 6.34375C55.4675 4.48958 57.4467 3.11458 59.5925 2.21875C62.4467 1.01042 65.7383 0.40625 69.4675 0.40625C76.2175 0.40625 81.6133 2.5 85.655 6.6875C89.7175 10.875 91.7487 16.6979 91.7487 24.1562C91.7487 31.5521 89.7383 37.3438 85.7175 41.5312C81.6967 45.6979 76.3217 47.7812 69.5925 47.7812C62.78 47.7812 57.3633 45.7083 53.3425 41.5625C49.3217 37.3958 47.3112 31.6667 47.3112 24.375ZM56.8425 24.0625C56.8425 29.25 58.0404 33.1875 60.4362 35.875C62.8321 38.5417 65.8737 39.875 69.5612 39.875C73.2487 39.875 76.2696 38.5521 78.6237 35.9062C80.9987 33.2396 82.1862 29.25 82.1862 23.9375C82.1862 18.6875 81.03 14.7708 78.7175 12.1875C76.4258 9.60417 73.3737 8.3125 69.5612 8.3125C65.7487 8.3125 62.6758 9.625 60.3425 12.25C58.0092 14.8542 56.8425 18.7917 56.8425 24.0625ZM98.4037 24.375C98.4037 19.7083 99.1017 15.7917 100.497 12.625C101.539 10.2917 102.956 8.19792 104.747 6.34375C106.56 4.48958 108.539 3.11458 110.685 2.21875C113.539 1.01042 116.831 0.40625 120.56 0.40625C127.31 0.40625 132.706 2.5 136.747 6.6875C140.81 10.875 142.841 16.6979 142.841 24.1562C142.841 31.5521 140.831 37.3438 136.81 41.5312C132.789 45.6979 127.414 47.7812 120.685 47.7812C113.872 47.7812 108.456 45.7083 104.435 41.5625C100.414 37.3958 98.4037 31.6667 98.4037 24.375ZM107.935 24.0625C107.935 29.25 109.133 33.1875 111.529 35.875C113.925 38.5417 116.966 39.875 120.654 39.875C124.341 39.875 127.362 38.5521 129.716 35.9062C132.091 33.2396 133.279 29.25 133.279 23.9375C133.279 18.6875 132.122 14.7708 129.81 12.1875C127.518 9.60417 124.466 8.3125 120.654 8.3125C116.841 8.3125 113.768 9.625 111.435 12.25C109.102 14.8542 107.935 18.7917 107.935 24.0625ZM151.621 47V1.5625H160.871V39.2812H183.871V47H151.621Z" fill="#FF64A8"/>
</svg>
